HIERARCHY
ROOT Hips
{
	OFFSET 0.00000 0.00000 0.00000
	CHANNELS 6 Xposition Yposition Zposition Yrotation Zrotation Xrotation 
	JOINT Lumbar
	{
		OFFSET 0 0 0
		CHANNELS 3 Zrotation Xrotation Yrotation
		JOINT Neck
		{
			OFFSET 0.00 0.2701 0.00
			CHANNELS 3 Zrotation Xrotation Yrotation
			End Site
			{
				OFFSET 0.00 0.1379 0.00
			}
		}
		JOINT RightShoulder
		{
			OFFSET 0.0119 0.2289 0.1181
			CHANNELS 3 Zrotation Xrotation Yrotation
			JOINT RightElbow
			{
				OFFSET 0.00 -0.1475 0.00
				CHANNELS 2 Zrotation Yrotation
				JOINT RightWrist
				{
					OFFSET 0.00 -0.1605 0.00
					CHANNELS 2 Zrotation Xrotation
					End Site
					{
						OFFSET 0.0040 -0.1068 0.0006
					}
				}
			}
		}
		JOINT LeftShoulder
		{
			OFFSET 0.0119 0.2289 -0.1181
			CHANNELS 3 Zrotation Xrotation Yrotation
			JOINT LeftElbow
			{
				OFFSET 0.00 -0.1475 0.00
				CHANNELS 2 Zrotation Yrotation
				JOINT LeftWrist
				{
					OFFSET 0.00 -0.1605 0.00
					CHANNELS 2 Zrotation Xrotation
					End Site
					{
						OFFSET 0.0040 -0.1068 -0.0006
					}
				}
			}
		}
	}
	JOINT RightHip
	{
		OFFSET 0.0316 -0.0424 0.0458
		CHANNELS 3 Zrotation Xrotation Yrotation
		JOINT RightKnee
		{
			OFFSET 0.00 -0.2438 0.00
			CHANNELS 1 Zrotation
			JOINT RightAnkle
			{
				OFFSET 0.00 -0.2449 0.00
				CHANNELS 3 Zrotation Xrotation Yrotation
				End Site
				{
					OFFSET 0.1237 -0.0542 0.0051
				}
			}
		}
	}
	JOINT LeftHip
	{
		OFFSET 0.0316 -0.0424 -0.0458
		CHANNELS 3 Zrotation Xrotation Yrotation
		JOINT LeftKnee
		{
			OFFSET 0.00 -0.2438 0.00
			CHANNELS 1 Zrotation
			JOINT LeftAnkle
			{
				OFFSET 0.00 -0.2449 0.00
				CHANNELS 3 Zrotation Xrotation Yrotation
				End Site
				{
					OFFSET 0.1237 -0.0542 -0.0051
				}
			}
		}
	}
}
MOTION
Frames: 17
Frame Time: 0.02
-0.00308 -0.00101 0.00224 26.48068 -28.98585 -6.1828 45.12748 2.87492 -7.42362 9.50241 3.76167 -0.12698 13.02719 -17.40159 57.49364 67.0452 54.6967 2.43867 -9.96976 8.21136 16.77161 -37.34995 82.44097 -74.84104 -1.68658 2.1342 43.18976 -0.16095 -1.68829 -20.75969 -7.13617 -4.58967 -2.99315 46.89521 5.25092 10.11212 -25.16558 -6.81901 2.65183 1.98609
-0.0024 -0.00101 0.0021 26.52716 -29.40841 -6.23351 45.56454 2.7804 -7.07342 9.20955 3.70589 -0.12835 11.19438 -16.54887 49.11106 62.44399 60.99677 2.95861 -8.25479 6.09977 16.52861 -35.20716 78.65624 -77.42965 -0.64877 1.70176 43.5403 -0.15283 -2.14063 -20.63313 -7.09346 -4.57012 -2.98953 47.3241 5.13469 9.26315 -25.14015 -6.83131 2.7372 2.04048
-0.00171 -0.00102 0.00197 26.57366 -29.82951 -6.28405 46.00044 2.68601 -6.72451 8.91585 3.65002 -0.1298 9.36109 -15.70051 40.75845 57.85845 67.2702 3.47581 -6.54669 3.9891 16.28558 -33.06441 74.88335 -80.01744 0.38836 1.26979 43.88939 -0.14473 -2.59178 -20.50695 -7.05086 -4.55062 -2.98592 47.75133 5.01907 8.41775 -25.1148 -6.84355 2.8222 2.09464
-0.00103 -0.00103 0.00184 26.62002 -30.25075 -6.3346 46.43619 2.59176 -6.37542 8.6236 3.59438 -0.13118 7.53291 -14.85077 32.40255 53.27165 73.54946 3.9939 -4.8373 1.88309 16.0432 -30.92708 71.11033 -82.59955 1.42348 0.8385 44.23878 -0.13664 -3.04279 -20.38077 -7.00827 -4.53113 -2.98231 48.17885 4.90325 7.57159 -25.08945 -6.85581 2.90729 2.14886
-0.00035 -0.00103 0.00171 26.66631 -30.67352 -6.38534 46.87303 2.49745 -6.02497 8.33287 3.53891 -0.13246 5.70755 -13.99582 24.01459 48.66864 79.85871 4.51533 -3.12032 -0.22171 15.80116 -28.79238 67.32536 -85.17892 2.45806 0.4072 44.58974 -0.12853 -3.49484 -20.2542 -6.96557 -4.5116 -2.9787 48.60815 4.78672 6.72139 -25.06402 -6.86814 2.9928 2.20334
0.00033 -0.00104 0.00158 26.71323 -31.09107 -6.43543 47.30689 2.40292 -5.67933 8.03299 3.48218 -0.13426 3.85779 -13.16123 15.73642 44.12006 86.05694 5.02373 -1.43092 -2.34451 15.55607 -26.63303 63.57806 -87.78372 3.50033 -0.02608 44.9349 -0.12044 -3.94404 -20.12885 -6.92319 -4.49218 -2.97508 49.03101 4.67301 5.88607 -25.03883 -6.88019 3.07672 2.25682
0.00101 -0.00105 0.00144 26.75884 -31.51865 -6.48677 47.74631 2.30892 -5.32439 7.75175 3.42808 -0.13501 2.059 -12.28718 7.24844 39.46726 92.46951 5.55727 0.31168 -4.42885 15.31734 -24.52506 59.75941 -90.33674 4.52666 -0.45521 45.29133 -0.11235 -4.39865 -20.0012 -6.88021 -4.47254 -2.97147 49.46634 4.55382 5.02206 -25.01319 -6.89279 3.16372 2.31224
0.00169 -0.00106 0.00131 26.80564 -31.937 -6.53696 48.18055 2.21445 -4.97803 7.45349 3.3715 -0.13672 0.21354 -11.44845 -1.04965 34.91004 98.68847 6.06854 2.00601 -6.54849 15.07284 -22.37079 56.00596 -92.93338 5.56644 -0.88761 45.63741 -0.10419 -4.84796 -19.87565 -6.8378 -4.45313 -2.96787 49.89021 4.43956 4.18392 -24.98796 -6.9049 3.24795 2.36591
0.00238 -0.00106 0.00118 26.85401 -32.34412 -6.58576 48.60885 2.11926 -4.64202 7.13333 3.31207 -0.13967 -1.69217 -10.6571 -9.10414 30.47007 104.65603 6.54902 3.63863 -8.71382 14.82067 -20.15356 52.33305 -95.60211 6.6285 -1.32656 45.97075 -0.09623 -5.29224 -19.75268 -6.79601 -4.43388 -2.96419 50.30005 4.33178 3.37955 -24.96326 -6.91635 3.3285 2.41728
0.00304 -0.00107 0.00105 26.8937 -32.81603 -6.6426 49.07254 2.02777 -4.24605 6.93585 3.26956 -0.13567 -3.26106 -9.60579 -18.52588 25.35664 112.02578 7.19593 5.6182 -10.62408 14.61075 -18.27926 48.19917 -97.91271 7.58 -1.73554 46.37713 -0.08798 -5.76982 -19.61492 -6.75039 -4.41334 -2.96072 50.79053 4.18808 2.38732 -24.9356 -6.9314 3.42934 2.4814
0.00376 -0.00107 0.00092 26.95144 -33.15113 -6.68246 49.46071 1.92878 -3.97686 6.48184 3.19105 -0.14621 -5.53346 -9.09477 -25.08473 21.66353 116.4658 7.49863 6.87101 -13.06673 14.31301 -15.69464 45.03658 -100.94173 8.75315 -2.20267 46.62958 -0.07976 -6.17432 -19.50834 -6.71302 -4.39578 -2.95698 51.11094 4.11929 1.78726 -24.9141 -6.93898 3.48796 2.51894
0.00465 -0.00108 0.00079 27.06131 -33.1082 -6.67539 49.64683 1.80654 -4.05663 5.29797 3.01537 -0.19804 -9.81369 -10.14864 -23.52989 21.90961 112.54901 6.78917 6.06647 -17.0321 13.75973 -11.03018 44.57521 -106.27556 10.63865 -2.87405 46.45447 -0.07676 -6.40096 -19.48842 -6.69698 -4.38412 -2.95103 50.95968 4.26521 2.30862 -24.91046 -6.92474 3.42475 2.48011
0.00561 -0.00108 0.00068 27.18868 -32.9285 -6.65131 49.75623 1.67733 -4.26343 3.86171 2.80327 -0.26419 -14.78389 -11.72986 -19.14662 23.57361 105.74793 5.74586 4.54382 -21.51872 13.12034 -5.67664 45.08262 -112.27291 12.72846 -3.59619 46.12596 -0.07301 -6.5509 -19.49963 -6.68939 -4.37576 -2.94503 50.63873 4.48467 3.2154 -24.91282 -6.90324 3.32024 2.41524
0.00654 -0.00108 0.00057 27.30656 -32.81295 -6.63524 49.89727 1.55295 -4.41148 2.5573 2.60676 -0.32288 -19.39075 -13.01597 -16.22782 24.5622 100.47553 4.90039 3.39099 -25.72909 12.5306 -0.72359 45.12299 -117.74407 14.65557 -4.26512 45.87079 -0.06603 -6.71997 -19.4959 -6.67885 -4.36753 -2.9401 50.39845 4.66448 3.91622 -24.9118 -6.88588 3.23853 2.36452
0.00749 -0.0011 0.00042 27.43159 -32.68823 -6.61802 50.0515 1.42126 -4.56441 1.17823 2.41415 -0.38564 -24.21826 -14.53704 -12.55335 25.68688 94.28246 3.86254 2.05329 -30.11489 11.89879 4.5998 45.27764 -124.14917 16.87388 -5.05877 45.59923 -0.07342 -6.95162 -19.49558 -6.66482 -4.35288 -2.93104 50.14213 4.87066 4.74775 -24.91356 -6.86491 3.13973 2.30392
0.0084 -0.00107 0.00036 27.54508 -32.55079 -6.59911 50.1604 1.3035 -4.73692 -0.10298 2.2049 -0.44327 -28.73831 -15.69402 -9.77483 26.86138 89.31705 3.14251 0.93029 -34.24854 11.33107 9.31487 45.42477 -128.78608 18.53924 -5.60796 45.3264 -0.05157 -7.03932 -19.49552 -6.65976 -4.35184 -2.93022 49.87986 5.03944 5.39852 -24.91096 -6.8498 3.06673 2.25776
0.00916 -0.00092 0.00054 27.62918 -32.40723 -6.57997 50.16012 1.2229 -4.93488 -1.06887 1.95774 -0.48369 -32.33257 -15.713 -10.23486 27.84525 88.51378 3.41599 0.57998 -37.64215 10.99092 12.17426 45.30318 -128.20254 18.58235 -5.44085 45.08025 0.05813 -6.70872 -19.4886 -6.67986 -4.39232 -2.95514 49.63602 5.08583 5.45384 -24.89473 -6.85224 3.07536 2.25772
